<?xml version="1.0" encoding="UTF-8"?>
<svg id="Layer_1" data-name="Layer 1" xmlns="http://www.w3.org/2000/svg" version="1.1" viewBox="0 0 14400 14400">
  <defs>
    <style>
      .cls-1 {
        fill: #000;
      }

      .cls-1, .cls-2 {
        stroke-width: 0px;
      }

      .cls-2 {
        fill: #fff;
      }
    </style>
  </defs>
  <rect class="cls-1" x="6238.8" y="6667" width="1620" height="540"/>
  <g>
    <path class="cls-2" d="M6366.2,6765.2c-6.3-1.4-11-2.2-14.2-2.2s-7.6,1.4-10.9,4.1c-4,3.3-6,7.6-6,12.9s3.6,11.9,10.9,23.5c7.3,11.6,10.9,22.3,10.9,32.1,0,14.2-5.4,25.8-16.1,34.9-10.3,8.7-22.9,13.1-38,13.1s-24.2-1-30.8-2.9c-.8-3.9-2.1-10.3-3.9-19.1-1.2-4.7-2.8-11.1-5-19,9.3,2.3,15.6,3.4,18.8,3.4,12.6,0,18.9-4.8,18.9-14.4s-2.5-13.2-7.6-18.7c-8.3-7.3-16.6-14.6-24.9-22-16.1-14.3-24.2-31.2-24.2-50.8s7.6-35.9,22.9-46.4c13.3-9.2,31-13.7,53.2-13.7s26.6,1.8,42.2,5.5l3.8,79.8Z"/>
    <path class="cls-2" d="M6548.3,6685.1l-2.9,82.3c-.8,23.5-1.3,59-1.3,106.6-21.7,7.8-43.8,11.7-66.4,11.7s-49-5.6-63.5-16.7c-12.3-9.4-21-24.1-26.1-44-3-11.5-5.8-32.4-8.4-62.9-2.5-28.2-4.1-53.9-4.7-77.1h82c-.4,11.2-.9,29.4-1.5,54.7-.3,14.1-.2,34.1.3,59.9,0,19.7,1.8,33,5.1,39.8,3.5,7.3,10.4,10.9,20.9,10.9s6.3-.8,9.9-2.5c0-17.5-.5-45.3-1.5-83.3-.8-19.1-2.4-45.6-4.7-79.5h62.8Z"/>
    <path class="cls-2" d="M6764.2,6685.1c-1.2,17.8-2.9,50.3-5.2,97.5-1.2,29-2.1,61.7-2.7,98h-46l-1.3-59.9-44.9,64.6-48.4-64.1-1.3,59.4h-45.8c-.6-19.4-1.7-52.3-3.4-98.5-1.2-26.6-3.3-59-6.5-97h72.9c2.5,6.2,6.9,16.2,13.1,30,4.7,9.8,11.2,21.5,19.5,34.9,3.6-5.8,10.3-17.7,20.1-35.8,3.5-6.7,7.9-16.4,13.4-29.1h66.6Z"/>
    <path class="cls-2" d="M6862.9,6685.1l-5,104c-.9,22.4-2,52.9-3.3,91.5h-71.3l-8.6-195.4h88.2Z"/>
    <path class="cls-2" d="M7029.6,6685.1c-1.2,17.1-2.8,47-5,89.7-1.3,31.4-2.3,67.5-3.2,108.3-11.1-8.7-28-21.8-50.7-39.1-9.8-6.9-24.5-17.2-44-30.9l-1.3,67.4h-40.9c-.7-17.2-2.2-49.7-4.7-97.5-2.1-38.7-4.3-71.3-6.5-98h63.8l47.3,44.8c0-10.3-.2-18.3-.5-24.2-.3-5.2-.8-12-1.5-20.6h47.2Z"/>
    <path class="cls-2" d="M7093.4,6683.1c-1.4,5.6-6.1,21.6-14.4,48.1-5.8,17.8-10.7,32.2-14.9,43.3l-24.7-14.5c1.9-5.7,5.9-19.8,12-42.2,4.2-17.6,7.5-33.5,9.9-47.7l32,13.1Z"/>
    <path class="cls-2" d="M7229.3,6765.2c-6.3-1.4-11-2.2-14.2-2.2s-7.6,1.4-10.9,4.1c-4,3.3-6,7.6-6,12.9s3.6,11.9,10.9,23.5c7.3,11.6,10.9,22.3,10.9,32.1,0,14.2-5.4,25.8-16.1,34.9-10.3,8.7-22.9,13.1-38,13.1s-24.2-1-30.8-2.9c-.8-3.9-2.1-10.3-3.9-19.1-1.2-4.7-2.8-11.1-5-19,9.3,2.3,15.6,3.4,18.8,3.4,12.6,0,18.9-4.8,18.9-14.4s-2.5-13.2-7.6-18.7c-8.3-7.3-16.6-14.6-24.9-22-16.1-14.3-24.2-31.2-24.2-50.8s7.6-35.9,22.9-46.4c13.3-9.2,31-13.7,53.2-13.7s26.6,1.8,42.2,5.5l3.8,79.8Z"/>
    <path class="cls-2" d="M6409.9,7075c0,24.1-7.7,43.4-23.1,57.8-15.4,14.5-35.8,21.7-61.2,21.7l-1.5,38.8h-70.1l-3.7-94.8c-1.1-24.4-2.8-58-5.2-100.6,13.2-2.6,32.6-3.9,58.1-3.9s56,6.2,74.8,18.7c21.3,14.2,31.9,34.9,31.9,62.3ZM6357.2,7096.3c0-13.2-7.8-19.8-23.5-19.8s-3.8.1-5.7.4l-1.3,44.5c20.3-.7,30.5-9,30.5-25.1Z"/>
    <path class="cls-2" d="M6588.8,7091.4c0,29.9-7.7,55.3-23.1,76-16.2,21.6-36.9,32.4-62.2,32.4s-47.1-10.9-63.2-32.7c-15.2-20.5-22.8-45.8-22.8-75.7s8.3-57.1,24.8-75.3c15.6-17.1,36-25.7,61.2-25.7s44.9,8.6,60.5,25.8c16.5,18.3,24.8,43.4,24.8,75.2ZM6527.7,7113.8c0-23.6-8-35.4-23.9-35.4s-23.3,11.9-23.3,35.6,2,18.4,6.1,26.6c4.6,9.2,10.2,13.9,16.9,13.9s12.3-4.7,17.3-14.1c4.6-8.6,6.9-17.4,6.9-26.6Z"/>
    <path class="cls-2" d="M6769.3,7071c0,15.6-4.4,29.4-13.1,41.5-7.7,10.5-17.4,18.1-29,22.6,2.5,3.8,8.5,11.8,18.2,24,4.8,5.6,12.2,13,22.1,22.1-4,1.4-12.8,5.1-26.3,10.9-9.5,4.3-18.4,8.6-26.8,12.7-2.5-3.1-7.9-10.9-16.4-23.7-3.9-6.4-9.6-17.3-17.2-32.6h-.3l-1.3,44.5h-71.6c-.9-18.5-2.2-49-3.9-91.5-.8-25-2.5-59.7-5.2-104,23.3-2.5,44.6-3.7,63.8-3.7,71.3,0,106.9,25.6,106.9,76.9ZM6711.6,7098.5c0-8.1-3.4-13.8-10.2-17.3-5-2.5-11.3-3.6-18.8-3.3l-.8,43.5c7,0,13.3-1.6,18.8-4.7,7.3-4.1,10.9-10.1,10.9-18.2Z"/>
    <path class="cls-2" d="M6931.9,6997.9l-3.7,80c-3.3-.5-8.6-1.1-15.9-1.9-4.5-.3-11.8-.5-21.9-.8-.5,5-1.4,17.1-2.7,36.3-.9,18.6-2.5,45.9-4.6,81.8h-61.5c-.7-17.1-2-44.1-3.8-80.8-.8-12.7-1.7-25.1-2.7-37.3l-20.1.8-18.2,1.9-3.2-80h158.2Z"/>
    <path class="cls-2" d="M7109.9,7091.4c0,29.9-7.7,55.3-23.1,76-16.2,21.6-36.9,32.4-62.2,32.4s-47.1-10.9-63.2-32.7c-15.2-20.5-22.8-45.8-22.8-75.7s8.3-57.1,24.8-75.3c15.6-17.1,36-25.7,61.2-25.7s44.9,8.6,60.5,25.8c16.5,18.3,24.8,43.4,24.8,75.2ZM7048.8,7113.8c0-23.6-8-35.4-23.9-35.4s-23.3,11.9-23.3,35.6,2,18.4,6.1,26.6c4.6,9.2,10.2,13.9,16.9,13.9s12.3-4.7,17.3-14.1c4.6-8.6,6.9-17.4,6.9-26.6Z"/>
    <path class="cls-2" d="M7252.4,6997.9l-5.2,80c-3.1-.5-9.8-1.2-20-2.2-6.1-.3-13.3-.4-21.6-.5l-2.2,41c8.7.2,22.2-.5,40.4-1.9-.8,3.8-2.2,10.1-3.9,18.8-.9,5.2-2,11.4-3.1,18.7-2.4-.5-7.8-1.3-16.4-2.3-6.4-.5-12.6-.7-18.8-.5l-1,44.3h-71.3l-3.9-99.8c-.7-22.9-2.6-54.8-5.7-95.7h132.8Z"/>
    <path class="cls-2" d="M7432.3,7091.4c0,29.9-7.7,55.3-23.1,76-16.2,21.6-36.9,32.4-62.2,32.4s-47.1-10.9-63.2-32.7c-15.2-20.5-22.8-45.8-22.8-75.7s8.3-57.1,24.8-75.3c15.6-17.1,36-25.7,61.2-25.7s44.9,8.6,60.5,25.8c16.5,18.3,24.8,43.4,24.8,75.2ZM7371.1,7113.8c0-23.6-8-35.4-23.9-35.4s-23.3,11.9-23.3,35.6,2,18.4,6.1,26.6c4.6,9.2,10.2,13.9,16.9,13.9s12.3-4.7,17.3-14.1c4.6-8.6,6.9-17.4,6.9-26.6Z"/>
    <path class="cls-2" d="M7573.9,7154.7c-.8,3.4-2.4,9.8-4.7,19.2-1.2,5.5-2.2,12-3.1,19.3h-115.1c-.4-19.9-1.5-52.8-3.2-98.5-1.1-23.4-3.1-55.7-6-97h88.2l-7.2,162.1c8.2,0,20.6-.9,37-2.7,3.4-.3,8.1-1.2,14-2.5Z"/>
    <path class="cls-2" d="M7668.2,6997.9l-5,104c-.9,22.4-2,52.9-3.3,91.5h-71.3l-8.6-195.4h88.2Z"/>
    <path class="cls-2" d="M7849.1,7091.4c0,29.9-7.7,55.3-23.1,76-16.2,21.6-36.9,32.4-62.2,32.4s-47.1-10.9-63.2-32.7c-15.2-20.5-22.8-45.8-22.8-75.7s8.3-57.1,24.8-75.3c15.6-17.1,36-25.7,61.2-25.7s44.9,8.6,60.5,25.8c16.5,18.3,24.8,43.4,24.8,75.2ZM7788,7113.8c0-23.6-8-35.4-23.9-35.4s-23.3,11.9-23.3,35.6,2,18.4,6.1,26.6c4.6,9.2,10.2,13.9,16.9,13.9s12.3-4.7,17.3-14.1c4.6-8.6,6.9-17.4,6.9-26.6Z"/>
  </g>
</svg>